<svg width="64" height="64" viewBox="0 0 64 64" fill="none" xmlns="http://www.w3.org/2000/svg">
<path fill-rule="evenodd" clip-rule="evenodd" d="M3.5 6C3.5 4.61929 4.61929 3.5 6 3.5H15C16.3807 3.5 17.5 4.61929 17.5 6C17.5 7.38071 16.3807 8.5 15 8.5H8.5V15C8.5 16.3807 7.38071 17.5 6 17.5C4.61929 17.5 3.5 16.3807 3.5 15V6ZM3.5 58C3.5 59.3807 4.61929 60.5 6 60.5H15C16.3807 60.5 17.5 59.3807 17.5 58C17.5 56.6193 16.3807 55.5 15 55.5H8.5V49C8.5 47.6193 7.38071 46.5 6 46.5C4.61929 46.5 3.5 47.6193 3.5 49V58ZM58 3.5C59.3807 3.5 60.5 4.61929 60.5 6V15C60.5 16.3807 59.3807 17.5 58 17.5C56.6193 17.5 55.5 16.3807 55.5 15V8.5H49C47.6193 8.5 46.5 7.38071 46.5 6C46.5 4.61929 47.6193 3.5 49 3.5H58ZM60.5 58C60.5 59.3807 59.3807 60.5 58 60.5H49C47.6193 60.5 46.5 59.3807 46.5 58C46.5 56.6193 47.6193 55.5 49 55.5H55.5V49C55.5 47.6193 56.6193 46.5 58 46.5C59.3807 46.5 60.5 47.6193 60.5 49V58ZM38.7144 36.629C44.204 38.6464 48.171 40.1043 49.3328 42.4308C50.3586 44.5478 50.9267 46.8572 51 49.2084C51 49.4184 50.9166 49.6197 50.7681 49.7682C50.6197 49.9166 50.4183 50 50.2083 50H13.7917C13.5817 50 13.3803 49.9166 13.2319 49.7682C13.0834 49.6197 13 49.4184 13 49.2084C13.0742 46.8593 13.6423 44.5522 14.6672 42.4371C15.8278 40.1162 19.7957 38.6517 25.2882 36.6332L26.9919 35.9999C27.0677 35.9715 27.133 35.9207 27.1791 35.8542C27.2253 35.7877 27.25 35.7088 27.25 35.6279V32.2683C27.2503 32.2119 27.2385 32.156 27.2156 32.1045C27.1927 32.0529 27.1591 32.0067 27.117 31.9691C25.8529 30.84 25.0614 29.2756 24.9003 27.5884C24.8926 27.497 24.8528 27.4112 24.7879 27.3462C24.4295 26.943 24.1862 26.4509 24.0833 25.9214C23.9339 25.3979 23.9052 24.8473 23.9996 24.3111C24.0939 23.775 24.3088 23.2672 24.628 22.8262C24.6711 22.7754 24.7008 22.7146 24.7144 22.6493C24.7279 22.584 24.7249 22.5164 24.7056 22.4526C24.7547 22.6109 22.8895 17.703 24.533 15.4866C24.7703 15.1713 25.069 14.9074 25.411 14.7107C25.7531 14.514 26.1314 14.3885 26.5233 14.3419C26.5787 14.3331 26.6317 14.3125 26.6786 14.2817C26.7255 14.2508 26.7654 14.2104 26.7956 14.163C27.8643 12.4959 30.9566 11.9497 33.4598 12.0036C36.4682 12.0796 40.1684 13.0944 40.6941 15.7193C40.8553 18.0486 40.3912 20.3786 39.3498 22.4684C39.3237 22.5343 39.3154 22.6059 39.326 22.676C39.3366 22.7461 39.3656 22.8122 39.41 22.8674C39.7149 23.308 39.9183 23.8107 40.0056 24.3393C40.093 24.8679 40.062 25.4093 39.9151 25.9245C39.8122 26.4541 39.5689 26.9462 39.2105 27.3494C39.1459 27.4145 39.1061 27.5002 39.0981 27.5916C38.9371 29.2788 38.1455 30.8431 36.8814 31.9723C36.84 32.0097 36.8069 32.0554 36.7843 32.1064C36.7617 32.1574 36.75 32.2125 36.75 32.2683V35.6279C36.7513 35.7077 36.7766 35.7853 36.8226 35.8505C36.8687 35.9157 36.9333 35.9656 37.0081 35.9936L38.7086 36.6268L38.7144 36.629Z" fill="#FF9B24"/>
</svg>
