<svg width="64" height="64" viewBox="0 0 64 64" fill="none" xmlns="http://www.w3.org/2000/svg">
<path fill-rule="evenodd" clip-rule="evenodd" d="M6 3.5C4.61929 3.5 3.5 4.61929 3.5 6V15C3.5 16.3807 4.61929 17.5 6 17.5C7.38071 17.5 8.5 16.3807 8.5 15V8.5H15C16.3807 8.5 17.5 7.38071 17.5 6C17.5 4.61929 16.3807 3.5 15 3.5H6ZM6 60.5C4.61929 60.5 3.5 59.3807 3.5 58V49C3.5 47.6193 4.61929 46.5 6 46.5C7.38071 46.5 8.5 47.6193 8.5 49V55.5H15C16.3807 55.5 17.5 56.6193 17.5 58C17.5 59.3807 16.3807 60.5 15 60.5H6ZM60.5 6C60.5 4.61929 59.3807 3.5 58 3.5H49C47.6193 3.5 46.5 4.61929 46.5 6C46.5 7.38071 47.6193 8.5 49 8.5H55.5V15C55.5 16.3807 56.6193 17.5 58 17.5C59.3807 17.5 60.5 16.3807 60.5 15V6ZM58 60.5C59.3807 60.5 60.5 59.3807 60.5 58V49C60.5 47.6193 59.3807 46.5 58 46.5C56.6193 46.5 55.5 47.6193 55.5 49V55.5H49C47.6193 55.5 46.5 56.6193 46.5 58C46.5 59.3807 47.6193 60.5 49 60.5H58Z" fill="#FF9B24"/>
<path d="M44.2983 32.5287C44.9173 32.5396 45.5163 32.3111 45.9692 31.8915V31.882C47.3514 30.6253 48.3207 28.9836 48.7508 27.1711C49.181 25.3586 49.052 23.4593 48.3807 21.7207C47.8004 20.2656 46.7977 19.0151 45.5003 18.1283C44.203 17.2416 42.6696 16.7588 41.0953 16.7415C39.8953 16.5778 38.7433 16.1653 37.7138 15.5307C36.6843 14.8961 35.8004 14.0536 35.1192 13.0577C34.8348 12.6335 34.4206 12.3116 33.938 12.1395C33.4554 11.9674 32.9298 11.9542 32.4391 12.1019C31.9484 12.2497 31.5184 12.5505 31.2129 12.9598C30.9073 13.3692 30.7423 13.8655 30.7423 14.3754V31.787C30.7423 31.997 30.6583 32.1984 30.509 32.3469C30.3596 32.4954 30.1571 32.5789 29.9459 32.5789H26.7603C25.0281 32.5789 23.3347 33.0895 21.8943 34.0462C20.4539 35.0029 19.3311 36.3628 18.6678 37.9538C18.0044 39.5449 17.8304 41.2959 18.1676 42.9853C18.5049 44.6747 19.3383 46.2268 20.5625 47.4454C21.7867 48.6639 23.3467 49.4943 25.0454 49.8315C26.7441 50.1686 28.5052 49.9975 30.1061 49.3397C31.707 48.6818 33.0758 47.5669 34.0396 46.1357C35.0033 44.7045 35.5187 43.0213 35.5206 41.2989V21.1601C35.5206 21.0259 35.5549 20.894 35.6202 20.7766C35.6855 20.6593 35.7797 20.5603 35.8941 20.4891C36.0084 20.4178 36.139 20.3766 36.2737 20.3694C36.4084 20.3621 36.5428 20.3889 36.6642 20.4474C38.0422 21.1261 39.5576 21.4836 41.0953 21.4927C41.7225 21.5146 42.3291 21.7202 42.8392 22.0836C43.3492 22.4471 43.74 22.9522 43.9623 23.5357C44.2897 24.4065 44.3336 25.3575 44.0878 26.2544C43.842 27.1513 43.319 27.9488 42.5925 28.534C42.1705 28.9843 41.9408 29.58 41.9517 30.1954C41.9626 30.8108 42.2134 31.3981 42.6511 31.8333C43.0888 32.2686 43.6794 32.5179 44.2983 32.5287Z" fill="#FF9B24"/>
</svg>
