<svg width="64" height="64" viewBox="0 0 64 64" fill="none" xmlns="http://www.w3.org/2000/svg">
<path fill-rule="evenodd" clip-rule="evenodd" d="M6 3.5C4.61929 3.5 3.5 4.61929 3.5 6V15C3.5 16.3807 4.61929 17.5 6 17.5C7.38071 17.5 8.5 16.3807 8.5 15V8.5H15C16.3807 8.5 17.5 7.38071 17.5 6C17.5 4.61929 16.3807 3.5 15 3.5H6ZM6 60.5C4.61929 60.5 3.5 59.3807 3.5 58V49C3.5 47.6193 4.61929 46.5 6 46.5C7.38071 46.5 8.5 47.6193 8.5 49V55.5H15C16.3807 55.5 17.5 56.6193 17.5 58C17.5 59.3807 16.3807 60.5 15 60.5H6ZM60.5 6C60.5 4.61929 59.3807 3.5 58 3.5H49C47.6193 3.5 46.5 4.61929 46.5 6C46.5 7.38071 47.6193 8.5 49 8.5H55.5V15C55.5 16.3807 56.6193 17.5 58 17.5C59.3807 17.5 60.5 16.3807 60.5 15V6ZM58 60.5C59.3807 60.5 60.5 59.3807 60.5 58V49C60.5 47.6193 59.3807 46.5 58 46.5C56.6193 46.5 55.5 47.6193 55.5 49V55.5H49C47.6193 55.5 46.5 56.6193 46.5 58C46.5 59.3807 47.6193 60.5 49 60.5H58Z" fill="#FF9B24"/>
<path d="M9.36682 33.6402L17.2318 43.0781C17.6316 43.5579 18.3684 43.5579 18.7682 43.0781L26.6332 33.6402C27.176 32.9889 26.7128 32 25.865 32H10.135C9.2872 32 8.82405 32.9889 9.36682 33.6402Z" fill="#FF9B24"/>
<path d="M18 32C18 23.1634 25.1634 16 34 16C42.8366 16 50 23.1634 50 32C50 40.8366 42.8366 48 34 48C30.4428 48 27.1568 46.8392 24.5 44.8757" stroke="#FF9B24" stroke-width="5"/>
</svg>
