<svg width="64" height="64" viewBox="0 0 64 64" fill="none" xmlns="http://www.w3.org/2000/svg">
<path d="M5.5 21.8C5.5 19.5185 5.50194 17.9578 5.60069 16.7492C5.69705 15.5698 5.87299 14.9475 6.09946 14.5031C6.62677 13.4682 7.46816 12.6268 8.50305 12.0995C8.94753 11.873 9.56978 11.6971 10.7492 11.6007C11.9578 11.5019 13.5185 11.5 15.8 11.5H48.2C50.4815 11.5 52.0422 11.5019 53.2508 11.6007C54.4302 11.6971 55.0525 11.873 55.4969 12.0995C56.5318 12.6268 57.3732 13.4682 57.9005 14.5031C58.127 14.9475 58.3029 15.5698 58.3993 16.7492C58.4981 17.9578 58.5 19.5185 58.5 21.8V48.2C58.5 50.4815 58.4981 52.0422 58.3993 53.2508C58.3029 54.4302 58.127 55.0525 57.9005 55.4969C57.3732 56.5318 56.5318 57.3732 55.4969 57.9005C55.0525 58.127 54.4302 58.3029 53.2508 58.3993C52.0422 58.4981 50.4815 58.5 48.2 58.5H15.8C13.5185 58.5 11.9578 58.4981 10.7492 58.3993C9.56978 58.3029 8.94753 58.127 8.50305 57.9005C7.46816 57.3732 6.62677 56.5318 6.09946 55.4969C5.87299 55.0525 5.69705 54.4302 5.60069 53.2508C5.50194 52.0422 5.5 50.4815 5.5 48.2V21.8Z" stroke="#FF9B24" stroke-width="5"/>
<path d="M5.5 33.8C5.5 31.5185 5.50194 29.9578 5.60069 28.7492C5.69705 27.5698 5.87299 26.9475 6.09946 26.5031C6.62677 25.4682 7.46816 24.6268 8.50305 24.0995C8.94753 23.873 9.56978 23.6971 10.7492 23.6007C11.9578 23.5019 13.5185 23.5 15.8 23.5H48.2C50.4815 23.5 52.0422 23.5019 53.2508 23.6007C54.4302 23.6971 55.0525 23.873 55.4969 24.0995C56.5318 24.6268 57.3732 25.4682 57.9005 26.5031C58.127 26.9475 58.3029 27.5698 58.3993 28.7492C58.4981 29.9578 58.5 31.5185 58.5 33.8V48.2C58.5 50.4815 58.4981 52.0422 58.3993 53.2508C58.3029 54.4302 58.127 55.0525 57.9005 55.4969C57.3732 56.5318 56.5318 57.3732 55.4969 57.9005C55.0525 58.127 54.4302 58.3029 53.2508 58.3993C52.0422 58.4981 50.4815 58.5 48.2 58.5H15.8C13.5185 58.5 11.9578 58.4981 10.7492 58.3993C9.56978 58.3029 8.94753 58.127 8.50305 57.9005C7.46816 57.3732 6.62677 56.5318 6.09946 55.4969C5.87299 55.0525 5.69705 54.4302 5.60069 53.2508C5.50194 52.0422 5.5 50.4815 5.5 48.2V33.8Z" stroke="#FF9B24" stroke-width="5"/>
<rect x="8" y="14" width="48" height="12" fill="#FF9B24"/>
<path d="M22 40.1905L28.875 47L42 34" stroke="#FF9B24" stroke-width="5" stroke-linecap="round" stroke-linejoin="round"/>
<path d="M18 13V5" stroke="#FF9B24" stroke-width="5" stroke-linecap="round" stroke-linejoin="round"/>
<path d="M46 13V5" stroke="#FF9B24" stroke-width="5" stroke-linecap="round" stroke-linejoin="round"/>
</svg>
