<svg width="64" height="64" viewBox="0 0 64 64" fill="none" xmlns="http://www.w3.org/2000/svg">
<path fill-rule="evenodd" clip-rule="evenodd" d="M22 38V26C22 23.7909 23.7909 22 26 22H38C40.2091 22 42 23.7909 42 26V38C42 40.2091 40.2091 42 38 42H26C23.7909 42 22 40.2091 22 38ZM32.0001 36.4436C34.4547 36.4436 36.4446 34.4537 36.4446 31.9991C36.4446 29.5445 34.4547 27.5547 32.0001 27.5547C29.5455 27.5547 27.5557 29.5445 27.5557 31.9991C27.5557 34.4537 29.5455 36.4436 32.0001 36.4436Z" fill="#FF9B24"/>
<path fill-rule="evenodd" clip-rule="evenodd" d="M22 16V4C22 1.79086 23.7909 0 26 0H38C40.2091 0 42 1.79086 42 4V16C42 18.2091 40.2091 20 38 20H26C23.7909 20 22 18.2091 22 16ZM32.7804 4.92999L31.9996 3.95391L31.2187 4.92999L28.9965 7.70777L27.6967 9.33247H29.7773H30.9996V14.9991V15.9991H32.9996V14.9991V9.33247H34.2218H36.3024L35.0027 7.70777L32.7804 4.92999Z" fill="#FF9B24"/>
<path fill-rule="evenodd" clip-rule="evenodd" d="M22 48V60C22 62.2091 23.7909 64 26 64H38C40.2091 64 42 62.2091 42 60V48C42 45.7909 40.2091 44 38 44H26C23.7909 44 22 45.7909 22 48ZM32.7804 59.07L31.9996 60.0461L31.2187 59.07L28.9965 56.2922L27.6967 54.6675H29.7773H30.9996V49.0009V48.0009H32.9996V49.0009V54.6675H34.2218H36.3024L35.0027 56.2922L32.7804 59.07Z" fill="#FF9B24"/>
<path fill-rule="evenodd" clip-rule="evenodd" d="M48 22L60 22C62.2091 22 64 23.7909 64 26L64 38C64 40.2091 62.2091 42 60 42L48 42C45.7909 42 44 40.2091 44 38L44 26C44 23.7909 45.7909 22 48 22ZM59.069 32.7804L60.0451 31.9996L59.069 31.2187L56.2913 28.9965L54.6666 27.6967L54.6666 29.7773L54.6666 30.9996L48.9999 30.9996L47.9999 30.9996L47.9999 32.9996L48.9999 32.9996L54.6666 32.9996L54.6666 34.2218L54.6666 36.3024L56.2913 35.0027L59.069 32.7804Z" fill="#FF9B24"/>
<path fill-rule="evenodd" clip-rule="evenodd" d="M16 42L4 42C1.79086 42 -7.8281e-08 40.2091 -1.74846e-07 38L-6.99382e-07 26C-7.95947e-07 23.7909 1.79086 22 4 22L16 22C18.2091 22 20 23.7909 20 26L20 38C20 40.2091 18.2091 42 16 42ZM4.93097 31.2196L3.95488 32.0004L4.93097 32.7813L7.70875 35.0035L9.33344 36.3033L9.33344 34.2227L9.33344 33.0004L15.0001 33.0004L16.0001 33.0004L16.0001 31.0004L15.0001 31.0004L9.33344 31.0004L9.33344 29.7782L9.33344 27.6976L7.70875 28.9973L4.93097 31.2196Z" fill="#FF9B24"/>
</svg>
