<svg width="64" height="64" viewBox="0 0 64 64" fill="none" xmlns="http://www.w3.org/2000/svg">
<path fill-rule="evenodd" clip-rule="evenodd" d="M6 3.5C4.61929 3.5 3.5 4.61929 3.5 6V15C3.5 16.3807 4.61929 17.5 6 17.5C7.38071 17.5 8.5 16.3807 8.5 15V8.5H15C16.3807 8.5 17.5 7.38071 17.5 6C17.5 4.61929 16.3807 3.5 15 3.5H6ZM6 60.5C4.61929 60.5 3.5 59.3807 3.5 58V49C3.5 47.6193 4.61929 46.5 6 46.5C7.38071 46.5 8.5 47.6193 8.5 49V55.5H15C16.3807 55.5 17.5 56.6193 17.5 58C17.5 59.3807 16.3807 60.5 15 60.5H6ZM60.5 6C60.5 4.61929 59.3807 3.5 58 3.5H49C47.6193 3.5 46.5 4.61929 46.5 6C46.5 7.38071 47.6193 8.5 49 8.5H55.5V15C55.5 16.3807 56.6193 17.5 58 17.5C59.3807 17.5 60.5 16.3807 60.5 15V6ZM58 60.5C59.3807 60.5 60.5 59.3807 60.5 58V49C60.5 47.6193 59.3807 46.5 58 46.5C56.6193 46.5 55.5 47.6193 55.5 49V55.5H49C47.6193 55.5 46.5 56.6193 46.5 58C46.5 59.3807 47.6193 60.5 49 60.5H58Z" fill="#FF9B24"/>
<path fill-rule="evenodd" clip-rule="evenodd" d="M37.0775 17C38.2926 17 39.4419 17.5524 40.201 18.5012L41.799 20.4988C42.5581 21.4476 43.7074 22 44.9225 22H47C49.7614 22 52 24.2386 52 27V41C52 43.7614 49.7614 46 47 46H17C14.2386 46 12 43.7614 12 41V27C12 24.2386 14.2386 22 17 22H19.0775C20.2926 22 21.4419 21.4476 22.201 20.4988L23.799 18.5012C24.5581 17.5524 25.7074 17 26.9225 17H37.0775ZM37 33C37 35.7614 34.7614 38 32 38C29.2386 38 27 35.7614 27 33C27 30.2386 29.2386 28 32 28C34.7614 28 37 30.2386 37 33ZM41 33C41 37.9706 36.9706 42 32 42C27.0294 42 23 37.9706 23 33C23 28.0294 27.0294 24 32 24C36.9706 24 41 28.0294 41 33Z" fill="#FF9B24"/>
</svg>
