<svg width="203" height="40" fill="none" xmlns="http://www.w3.org/2000/svg"><path d="M9.472 21.3s-.421 12.33-.421 14.057c0 1.607.803 2.322 1.996 2.322a2 2 0 0 0 1.383-.555L25.272 24.9c-1.5 0-2.523-.226-3.8-1.1-1.9-1.3-3.3-3.3-5.7-3.9-2.4-.6-4-.1-6.3 1.4Z" fill="#FFC01F"/><path d="M29.986 20.714c1.25-2.321.179-4.999-.893-5.893 0 0 1.786-.88 1.786-3.203 0-2.324-1.607-3.486-1.607-3.486s1.607-.915 1.607-2.334c0-1.34-.714-1.902-1.25-2.592-.503-.647-.218-2.366.41-2.794.071-.048.126-.122.126-.207A.205.205 0 0 0 29.96 0h-.331c-2.5 0-4.732.267-6.16 1.16-1.43.894-1.965 2.415-1.876 3.845-1.268-.18-3.035-.236-4.166.763-1.13.999-1.459 2.09-1.19 3.875-1.43-.268-3.72-.22-5.302 1.38C9.549 12.424 9.372 14.1 9.772 15.6c-1.4 0-3.444.9-3.6 2.3-.157 1.4.9 2.1 1.9 2.1.594 0 1.4-.5 2.6-1.2 1.2-.7 3.457-.984 5.8-.3 2.343.684 2.943 1.8 5.7 3.9 2.757 2.1 6.564.636 7.814-1.686Z" fill="#FF7CAB"/><path d="M82.744 25.863a6.469 6.469 0 0 1-2.998-.72 5.621 5.621 0 0 1-2.2-2.087c-.557-.91-.835-1.998-.835-3.263.025-1.745.594-3.124 1.707-4.136 1.113-1.037 2.555-1.555 4.326-1.555.683 0 1.353.075 2.01.227.658.152 1.227.43 1.708.835.38.303.569.696.569 1.176 0 .405-.152.772-.455 1.1a1.33 1.33 0 0 1-1.063.494c-.278 0-.53-.076-.759-.228a4.6 4.6 0 0 0-1.024-.417 3.615 3.615 0 0 0-.948-.114c-.835 0-1.518.24-2.05.72-.53.481-.796 1.126-.796 1.936 0 .936.29 1.67.873 2.2a3.023 3.023 0 0 0 2.049.76c.885 0 1.72-.33 2.504-.987.303-.228.594-.342.872-.342.405 0 .746.165 1.025.494.303.328.455.708.455 1.138 0 .177-.038.38-.114.607a1.746 1.746 0 0 1-.417.607 6.206 6.206 0 0 1-2.2 1.176 7.05 7.05 0 0 1-2.24.38ZM91.516 25.75c-.481 0-.886-.14-1.215-.418a1.33 1.33 0 0 1-.493-1.062V15.77c0-.405.152-.746.455-1.024.33-.304.747-.456 1.252-.456.456 0 .823.14 1.1.418.304.253.481.569.532.948.278-.43.658-.797 1.138-1.1.48-.304.987-.455 1.518-.455.329 0 .645.037.948.113.355.102.645.304.873.607.228.279.342.608.342.987 0 .531-.177.974-.532 1.328a1.2 1.2 0 0 1-1.176.341 4.373 4.373 0 0 0-.986-.114c-.582 0-1.063.203-1.442.608-.38.404-.607 1.226-.683 2.466v3.794c0 .43-.164.797-.493 1.1-.304.278-.683.418-1.138.418ZM46.982 25.863c-.48 0-.885-.139-1.214-.417a1.33 1.33 0 0 1-.493-1.062V15.77c0-.405.151-.746.455-1.024.329-.304.746-.456 1.252-.456s.898.152 1.176.456c.304.278.455.632.455 1.062v8.537c0 .43-.164.797-.493 1.1-.303.278-.683.417-1.138.417Zm0-13.469c-.531 0-.987-.164-1.366-.493a1.741 1.741 0 0 1-.57-1.328c0-.48.19-.898.57-1.252.38-.354.835-.531 1.366-.531.506 0 .936.177 1.29.531.38.354.569.771.569 1.252 0 .531-.19.974-.57 1.328a1.827 1.827 0 0 1-1.29.493ZM56.958 25.863a6.47 6.47 0 0 1-2.998-.72 5.62 5.62 0 0 1-2.2-2.087c-.557-.91-.835-1.998-.835-3.263.025-1.745.594-3.124 1.707-4.136 1.113-1.037 2.555-1.555 4.326-1.555.683 0 1.353.075 2.01.227.658.152 1.227.43 1.708.835.38.303.569.696.569 1.176 0 .405-.152.772-.455 1.1a1.33 1.33 0 0 1-1.063.494c-.278 0-.53-.076-.759-.228a4.598 4.598 0 0 0-1.024-.417 3.61 3.61 0 0 0-.949-.114c-.834 0-1.517.24-2.048.72-.532.481-.797 1.126-.797 1.936 0 .936.29 1.67.873 2.2a3.023 3.023 0 0 0 2.048.76c.886 0 1.72-.33 2.505-.987.303-.228.594-.342.872-.342.405 0 .746.165 1.025.494.303.328.455.708.455 1.138 0 .177-.038.38-.114.607a1.746 1.746 0 0 1-.417.607 6.208 6.208 0 0 1-2.2 1.176 7.053 7.053 0 0 1-2.24.38ZM117.676 25.863c-1.695 0-3.074-.53-4.136-1.593-1.037-1.088-1.556-2.53-1.556-4.325 0-1.796.506-3.213 1.518-4.25 1.037-1.062 2.39-1.593 4.06-1.593 1.189 0 2.226.417 3.111 1.252a1.52 1.52 0 0 1 .569-.76c.278-.202.607-.303.987-.303.505 0 .91.152 1.214.456.329.278.493.62.493 1.024v8.613c0 .43-.164.784-.493 1.062-.304.278-.709.417-1.214.417-.835 0-1.354-.366-1.556-1.1-.809.734-1.809 1.1-2.997 1.1Zm.265-3.073c.81 0 1.455-.265 1.935-.797.481-.556.721-1.239.721-2.048 0-.835-.24-1.506-.721-2.011-.48-.506-1.125-.76-1.935-.76-.784 0-1.429.254-1.935.76-.48.505-.721 1.176-.721 2.01 0 .81.241 1.493.721 2.05.506.53 1.151.796 1.935.796ZM128.493 25.863c-.48 0-.885-.139-1.214-.417a1.33 1.33 0 0 1-.493-1.062V15.77c0-.405.152-.746.455-1.024.329-.304.746-.456 1.252-.456.582 0 1.025.203 1.328.607a.961.961 0 0 1 .228.456c.304-.38.708-.683 1.214-.911.506-.228 1.075-.341 1.707-.341 1.72 0 2.96.569 3.719 1.707a4.285 4.285 0 0 1 1.669-1.252 4.838 4.838 0 0 1 2.049-.455c1.416 0 2.529.417 3.339 1.252.835.834 1.252 2.162 1.252 3.983v5.123c0 .404-.164.746-.493 1.024-.304.253-.696.38-1.176.38-.481 0-.886-.14-1.215-.418a1.38 1.38 0 0 1-.455-1.062v-4.63c0-.935-.164-1.605-.493-2.01-.329-.405-.797-.607-1.404-.607-.607 0-1.1.19-1.48.569a2.725 2.725 0 0 0-.721 1.29v5.464c0 .404-.164.746-.493 1.024-.303.253-.695.38-1.176.38s-.885-.14-1.214-.418a1.376 1.376 0 0 1-.455-1.062v-4.63c0-.935-.165-1.605-.494-2.01-.329-.405-.796-.607-1.404-.607-.581 0-1.062.19-1.441.569a2.58 2.58 0 0 0-.759 1.252v5.388c0 .43-.165.796-.493 1.1-.304.278-.683.417-1.139.417ZM156.446 25.864c-1.568 0-2.858-.532-3.87-1.594-1.012-1.087-1.517-2.479-1.517-4.174 0-1.644.505-2.984 1.517-4.021 1.012-1.063 2.302-1.594 3.87-1.594 1.619 0 2.922.57 3.908 1.708v-.683c0-.279.089-.481.266-.607a.86.86 0 0 1 .569-.228c.228 0 .43.076.607.228.177.126.266.328.266.607v9.485a.76.76 0 0 1-.266.607.76.76 0 0 1-.607.266.76.76 0 0 1-.607-.266c-.152-.152-.228-.354-.228-.607v-.91c-.455.556-1.024.998-1.707 1.327-.658.304-1.391.456-2.201.456Zm0-1.556c1.189 0 2.138-.354 2.846-1.062.708-.709 1.062-1.758 1.062-3.15 0-1.34-.354-2.352-1.062-3.035-.708-.683-1.657-1.024-2.846-1.024-1.087 0-1.973.392-2.656 1.176-.657.784-.986 1.745-.986 2.883 0 1.19.329 2.189.986 2.998.683.81 1.569 1.214 2.656 1.214ZM170.915 25.864a5.449 5.449 0 0 1-2.238-.456 5.05 5.05 0 0 1-1.67-1.328v5.843c0 .253-.076.456-.227.608a.76.76 0 0 1-.607.265.878.878 0 0 1-.645-.265c-.152-.152-.228-.355-.228-.608V15.506c0-.279.089-.481.266-.607a.905.905 0 0 1 .607-.228.86.86 0 0 1 .569.228c.177.126.265.328.265.607v.683c.987-1.139 2.289-1.708 3.908-1.708 1.569 0 2.859.531 3.87 1.594 1.012 1.037 1.518 2.377 1.518 4.021 0 1.695-.506 3.087-1.518 4.174-1.011 1.063-2.301 1.594-3.87 1.594Zm0-1.556c1.088 0 1.961-.405 2.618-1.214.683-.81 1.025-1.809 1.025-2.998 0-1.138-.342-2.099-1.025-2.883-.657-.784-1.53-1.176-2.618-1.176-1.163 0-2.112.341-2.845 1.024-.709.683-1.063 1.695-1.063 3.035 0 1.392.354 2.441 1.063 3.15.733.708 1.682 1.062 2.845 1.062ZM184.773 25.864a5.45 5.45 0 0 1-2.239-.456 5.047 5.047 0 0 1-1.669-1.328v5.843c0 .253-.076.456-.228.608a.76.76 0 0 1-.607.265.878.878 0 0 1-.645-.265c-.152-.152-.227-.355-.227-.608V15.506c0-.279.088-.481.265-.607a.907.907 0 0 1 .607-.228c.203 0 .392.076.569.228.177.126.266.328.266.607v.683c.986-1.139 2.289-1.708 3.908-1.708 1.568 0 2.858.531 3.87 1.594 1.012 1.037 1.518 2.377 1.518 4.021 0 1.695-.506 3.087-1.518 4.174-1.012 1.063-2.302 1.594-3.87 1.594Zm0-1.556c1.088 0 1.96-.405 2.618-1.214.683-.81 1.024-1.809 1.024-2.998 0-1.138-.341-2.099-1.024-2.883-.658-.784-1.53-1.176-2.618-1.176-1.164 0-2.112.341-2.846 1.024-.708.683-1.062 1.695-1.062 3.035 0 1.392.354 2.441 1.062 3.15.734.708 1.682 1.062 2.846 1.062ZM196.695 25.864c-1.72 0-3.111-.494-4.173-1.48a.836.836 0 0 1-.266-.607.72.72 0 0 1 .304-.607c.202-.152.367-.228.493-.228.202 0 .455.127.759.38.379.328.809.581 1.29.758a5.146 5.146 0 0 0 1.707.266c.886 0 1.543-.164 1.973-.493.455-.33.683-.772.683-1.328 0-.582-.24-1-.721-1.252-.48-.279-1.163-.468-2.049-.57-.48-.05-1.062-.139-1.745-.265a4.18 4.18 0 0 1-1.745-.759c-.506-.404-.759-1.012-.759-1.821 0-1.037.379-1.86 1.138-2.466.759-.607 1.821-.91 3.187-.91.784 0 1.518.1 2.201.303.683.177 1.176.404 1.48.683a.721.721 0 0 1 .303.607c0 .177-.076.367-.228.569-.151.177-.328.266-.531.266a.671.671 0 0 1-.303-.076l-.304-.152a5.58 5.58 0 0 0-1.252-.531c-.354-.102-.784-.152-1.29-.152-.809 0-1.467.152-1.973.455-.48.278-.721.708-.721 1.29 0 .405.165.708.494.91.354.178 1.037.33 2.048.456.355.05.785.127 1.29.228.506.1 1 .265 1.48.493.481.202.885.518 1.214.948.329.405.493.949.493 1.632 0 1.037-.392 1.872-1.176 2.504-.784.633-1.884.949-3.301.949ZM69.382 25.863c-1.72 0-3.174-.505-4.363-1.517-1.164-1.037-1.746-2.454-1.746-4.25 0-1.872.57-3.338 1.708-4.4 1.163-1.063 2.618-1.594 4.363-1.594 1.24 0 2.264.227 3.073.682.81.456 1.417 1.038 1.822 1.746.404.708.607 1.454.607 2.238 0 1.316-.582 1.973-1.746 1.973h-6.298c-.202 0-.303.127-.303.38 0 .582.316 1.05.948 1.404.658.328 1.391.493 2.2.493.506 0 1.012-.063 1.518-.19.258-.077.563-.196.945-.39.754-.382 1.66-.266 2.073.471.303.542.275 1.328-.23 1.689a6.154 6.154 0 0 1-2.029.924 9.908 9.908 0 0 1-2.542.341Zm1.973-7.322c.05 0 .114-.013.19-.038.1-.026.151-.114.151-.266 0-.38-.24-.72-.72-1.024-.456-.33-1.05-.494-1.784-.494-.784 0-1.429.178-1.935.532-.48.328-.72.67-.72 1.024 0 .177.1.266.303.266h4.515ZM104.655 25.863c-1.72 0-3.174-.505-4.363-1.517-1.163-1.037-1.745-2.454-1.745-4.25 0-1.872.569-3.338 1.707-4.4 1.164-1.063 2.618-1.594 4.364-1.594 1.239 0 2.263.227 3.073.682.809.456 1.416 1.038 1.821 1.746s.607 1.454.607 2.238c0 1.316-.582 1.973-1.745 1.973h-6.299c-.202 0-.303.127-.303.38 0 .582.316 1.05.948 1.404.658.328 1.392.493 2.201.493.506 0 1.012-.063 1.518-.19.257-.077.563-.196.945-.39.753-.382 1.659-.266 2.072.471.303.542.276 1.328-.229 1.689a6.16 6.16 0 0 1-2.029.924 9.913 9.913 0 0 1-2.543.341Zm1.973-7.322a.624.624 0 0 0 .19-.038c.101-.026.152-.114.152-.266 0-.38-.24-.72-.721-1.024-.455-.33-1.05-.494-1.783-.494-.784 0-1.429.178-1.935.532-.481.328-.721.67-.721 1.024 0 .177.101.266.303.266h4.515Z" fill="#fff"/></svg>