<svg width="203" height="40" viewBox="0 0 203 40" fill="none" xmlns="http://www.w3.org/2000/svg">
<path d="M9.47617 21.3C9.47617 21.3 9.05469 33.6298 9.05469 35.3573C9.05469 36.9644 9.85826 37.6787 11.0508 37.6787C11.5664 37.6787 12.062 37.4801 12.4338 37.1244L25.2762 24.9003C23.7762 24.9003 22.7527 24.6738 21.4762 23.8003C19.5762 22.5 18.1762 20.5001 15.7762 19.8999C13.3762 19.2998 11.7762 19.8 9.47617 21.3Z" fill="#FFC01F"/>
<path d="M29.9939 20.7143C31.2439 18.3929 30.1725 15.7151 29.101 14.8214C29.101 14.8214 30.8868 13.9414 30.8868 11.6178C30.8868 9.29426 29.2796 8.13248 29.2796 8.13248C29.2796 8.13248 30.8868 7.21716 30.8868 5.79809C30.8868 4.45757 30.1725 3.89583 29.6368 3.20642C29.1334 2.5586 29.4184 0.839856 30.0473 0.412389C30.1178 0.364438 30.1725 0.290106 30.1725 0.204755C30.1725 0.0916718 30.0809 0 29.9679 0H29.6368C27.1368 0 24.9046 0.267133 23.476 1.16071C22.0475 2.0543 21.5118 3.57472 21.6011 5.0046C20.3327 4.82446 18.5653 4.7695 17.4346 5.76801C16.3039 6.76653 15.976 7.85714 16.2439 9.64286C14.8153 9.375 12.5249 9.42264 10.9428 11.0228C9.55702 12.4244 9.37964 14.1 9.77964 15.6C8.37964 15.6 6.3361 16.5 6.17958 17.9C6.02306 19.3 7.07896 20 8.07969 20C8.67367 20 9.47969 19.5 10.6797 18.8C11.8797 18.1 14.1368 17.8161 16.4796 18.5C18.8225 19.1839 19.4225 20.3 22.1796 22.4C24.9368 24.5 28.7439 23.0357 29.9939 20.7143Z" fill="#FF7CAB"/>
<path d="M82.7436 25.8634C81.6813 25.8634 80.6821 25.6231 79.7463 25.1425C78.8357 24.6619 78.1021 23.9664 77.5456 23.0558C76.9892 22.1452 76.7109 21.0575 76.7109 19.7928C76.7362 18.0475 77.3054 16.6689 78.4183 15.6572C79.5313 14.6201 80.973 14.1016 82.7436 14.1016C83.4266 14.1016 84.0969 14.1774 84.7545 14.3292C85.4122 14.481 85.9813 14.7592 86.4619 15.1639C86.8413 15.4675 87.031 15.8595 87.031 16.3401C87.031 16.7448 86.8793 17.1116 86.5757 17.4404C86.2975 17.7692 85.9434 17.9337 85.5134 17.9337C85.2351 17.9337 84.9822 17.8578 84.7545 17.706C84.3751 17.5037 84.0336 17.3645 83.7301 17.2886C83.4519 17.2128 83.1357 17.1748 82.7816 17.1748C81.9469 17.1748 81.2639 17.4151 80.7327 17.8957C80.2016 18.3763 79.936 19.0213 79.936 19.8307C79.936 20.7666 80.2269 21.5002 80.8086 22.0313C81.3904 22.5372 82.0733 22.7902 82.8575 22.7902C83.7428 22.7902 84.5775 22.4613 85.3616 21.8037C85.6651 21.576 85.956 21.4622 86.2343 21.4622C86.639 21.4622 86.9804 21.6266 87.2587 21.9555C87.5622 22.2843 87.714 22.6637 87.714 23.0937C87.714 23.2708 87.676 23.4731 87.6001 23.7008C87.5243 23.9031 87.3851 24.1055 87.1828 24.3078C86.4998 24.8643 85.7663 25.2564 84.9822 25.484C84.2234 25.737 83.4772 25.8634 82.7436 25.8634Z" fill="black"/>
<path d="M91.5155 25.7496C91.0349 25.7496 90.6302 25.6105 90.3014 25.3322C89.9726 25.054 89.8082 24.6999 89.8082 24.2699V15.771C89.8082 15.3663 89.9599 15.0248 90.2635 14.7466C90.5923 14.443 91.0096 14.2913 91.5155 14.2913C91.9708 14.2913 92.3376 14.4304 92.6158 14.7086C92.9194 14.9616 93.0964 15.2777 93.147 15.6572C93.4253 15.2272 93.8047 14.8604 94.2853 14.5569C94.7659 14.2533 95.2717 14.1016 95.8029 14.1016C96.1318 14.1016 96.4479 14.1395 96.7515 14.2154C97.1056 14.3166 97.3965 14.5189 97.6241 14.8225C97.8518 15.1007 97.9656 15.4295 97.9656 15.8089C97.9656 16.3401 97.7885 16.7828 97.4344 17.1369C97.1056 17.4657 96.7135 17.5795 96.2582 17.4784C95.9294 17.4025 95.6006 17.3645 95.2717 17.3645C94.69 17.3645 94.2094 17.5669 93.83 17.9716C93.4505 18.3763 93.2229 19.1984 93.147 20.4378V24.2319C93.147 24.6619 92.9826 25.0287 92.6538 25.3322C92.3502 25.6105 91.9708 25.7496 91.5155 25.7496Z" fill="black"/>
<path d="M46.9819 25.8627C46.5013 25.8627 46.0966 25.7236 45.7678 25.4454C45.4389 25.1671 45.2745 24.813 45.2745 24.383V15.7703C45.2745 15.3656 45.4263 15.0241 45.7298 14.7459C46.0586 14.4423 46.476 14.2906 46.9819 14.2906C47.4878 14.2906 47.8798 14.4423 48.1581 14.7459C48.4616 15.0241 48.6134 15.3782 48.6134 15.8082V24.3451C48.6134 24.7751 48.449 25.1419 48.1201 25.4454C47.8166 25.7236 47.4372 25.8627 46.9819 25.8627ZM46.9819 12.3935C46.4507 12.3935 45.9954 12.2291 45.616 11.9003C45.2366 11.5461 45.0469 11.1035 45.0469 10.5723C45.0469 10.0917 45.2366 9.67436 45.616 9.32024C45.9954 8.96612 46.4507 8.78906 46.9819 8.78906C47.4878 8.78906 47.9178 8.96612 48.2719 9.32024C48.6513 9.67436 48.841 10.0917 48.841 10.5723C48.841 11.1035 48.6513 11.5461 48.2719 11.9003C47.9178 12.2291 47.4878 12.3935 46.9819 12.3935Z" fill="black"/>
<path d="M56.9575 25.8627C55.8952 25.8627 54.8961 25.6224 53.9602 25.1419C53.0496 24.6613 52.316 23.9657 51.7596 23.0551C51.2031 22.1445 50.9248 21.0568 50.9248 19.7921C50.9501 18.0468 51.5193 16.6682 52.6322 15.6565C53.7452 14.6194 55.1869 14.1009 56.9575 14.1009C57.6405 14.1009 58.3108 14.1768 58.9684 14.3285C59.6261 14.4803 60.1952 14.7585 60.6758 15.1632C61.0552 15.4668 61.2449 15.8588 61.2449 16.3394C61.2449 16.7441 61.0932 17.1109 60.7896 17.4397C60.5114 17.7686 60.1573 17.933 59.7273 17.933C59.449 17.933 59.1961 17.8571 58.9684 17.7053C58.589 17.503 58.2476 17.3638 57.944 17.288C57.6658 17.2121 57.3496 17.1741 56.9955 17.1741C56.1608 17.1741 55.4778 17.4144 54.9466 17.895C54.4155 18.3756 54.1499 19.0206 54.1499 19.83C54.1499 20.7659 54.4408 21.4995 55.0225 22.0307C55.6043 22.5365 56.2872 22.7895 57.0714 22.7895C57.9567 22.7895 58.7914 22.4607 59.5755 21.803C59.879 21.5754 60.1699 21.4615 60.4482 21.4615C60.8529 21.4615 61.1943 21.6259 61.4726 21.9548C61.7761 22.2836 61.9279 22.663 61.9279 23.093C61.9279 23.2701 61.8899 23.4724 61.8141 23.7001C61.7382 23.9024 61.5991 24.1048 61.3967 24.3071C60.7138 24.8636 59.9802 25.2557 59.1961 25.4833C58.4373 25.7363 57.6911 25.8627 56.9575 25.8627Z" fill="black"/>
<path d="M117.676 25.8634C115.981 25.8634 114.602 25.3322 113.54 24.2699C112.503 23.1822 111.984 21.7405 111.984 19.9446C111.984 18.1487 112.49 16.7322 113.502 15.6951C114.539 14.6327 115.892 14.1016 117.562 14.1016C118.751 14.1016 119.788 14.5189 120.673 15.3536C120.774 15.0501 120.964 14.7972 121.242 14.5948C121.52 14.3924 121.849 14.2913 122.229 14.2913C122.734 14.2913 123.139 14.443 123.443 14.7466C123.772 15.0248 123.936 15.3663 123.936 15.771V24.3837C123.936 24.8137 123.772 25.1678 123.443 25.4461C123.139 25.7243 122.734 25.8634 122.229 25.8634C121.394 25.8634 120.875 25.4967 120.673 24.7631C119.864 25.4967 118.864 25.8634 117.676 25.8634ZM117.941 22.7902C118.751 22.7902 119.396 22.5246 119.876 21.9934C120.357 21.4369 120.597 20.754 120.597 19.9446C120.597 19.1098 120.357 18.4395 119.876 17.9337C119.396 17.4278 118.751 17.1748 117.941 17.1748C117.157 17.1748 116.512 17.4278 116.006 17.9337C115.526 18.4395 115.285 19.1098 115.285 19.9446C115.285 20.754 115.526 21.4369 116.006 21.9934C116.512 22.5246 117.157 22.7902 117.941 22.7902Z" fill="black"/>
<path d="M128.493 25.8634C128.013 25.8634 127.608 25.7243 127.279 25.4461C126.95 25.1678 126.786 24.8137 126.786 24.3837V15.771C126.786 15.3663 126.938 15.0248 127.241 14.7466C127.57 14.443 127.987 14.2913 128.493 14.2913C129.075 14.2913 129.518 14.4936 129.821 14.8983C129.948 15.0501 130.024 15.2019 130.049 15.3536C130.353 14.9742 130.757 14.6707 131.263 14.443C131.769 14.2154 132.338 14.1016 132.97 14.1016C134.69 14.1016 135.93 14.6707 136.689 15.8089C137.144 15.2525 137.701 14.8351 138.358 14.5569C139.016 14.2533 139.699 14.1016 140.407 14.1016C141.823 14.1016 142.936 14.5189 143.746 15.3536C144.581 16.1883 144.998 17.5163 144.998 19.3375V24.4596C144.998 24.8643 144.834 25.2058 144.505 25.484C144.201 25.737 143.809 25.8634 143.329 25.8634C142.848 25.8634 142.443 25.7243 142.114 25.4461C141.811 25.1678 141.659 24.8137 141.659 24.3837V19.7548C141.659 18.819 141.495 18.1487 141.166 17.7439C140.837 17.3392 140.369 17.1369 139.762 17.1369C139.155 17.1369 138.662 17.3266 138.282 17.706C137.928 18.0601 137.688 18.4901 137.561 18.996V24.4596C137.561 24.8643 137.397 25.2058 137.068 25.484C136.765 25.737 136.373 25.8634 135.892 25.8634C135.411 25.8634 135.007 25.7243 134.678 25.4461C134.374 25.1678 134.223 24.8137 134.223 24.3837V19.7548C134.223 18.819 134.058 18.1487 133.729 17.7439C133.4 17.3392 132.933 17.1369 132.325 17.1369C131.744 17.1369 131.263 17.3266 130.884 17.706C130.504 18.0601 130.251 18.4775 130.125 18.9581V24.3458C130.125 24.7758 129.96 25.1425 129.632 25.4461C129.328 25.7243 128.949 25.8634 128.493 25.8634Z" fill="black"/>
<path d="M156.442 25.8629C154.874 25.8629 153.584 25.3317 152.572 24.2694C151.561 23.1817 151.055 21.7905 151.055 20.0958C151.055 18.4517 151.561 17.1111 152.572 16.074C153.584 15.0117 154.874 14.4805 156.442 14.4805C158.061 14.4805 159.364 15.0496 160.35 16.1878V15.5049C160.35 15.2267 160.439 15.0243 160.616 14.8978C160.793 14.7461 160.983 14.6702 161.185 14.6702C161.413 14.6702 161.615 14.7461 161.792 14.8978C161.969 15.0243 162.058 15.2267 162.058 15.5049V24.9903C162.058 25.2432 161.969 25.4456 161.792 25.5973C161.64 25.7744 161.438 25.8629 161.185 25.8629C160.932 25.8629 160.73 25.7744 160.578 25.5973C160.426 25.4456 160.35 25.2432 160.35 24.9903V24.0797C159.895 24.6361 159.326 25.0788 158.643 25.4076C157.985 25.7112 157.252 25.8629 156.442 25.8629ZM156.442 24.3073C157.631 24.3073 158.58 23.9532 159.288 23.245C159.996 22.5367 160.35 21.487 160.35 20.0958C160.35 18.7552 159.996 17.7434 159.288 17.0605C158.58 16.3775 157.631 16.0361 156.442 16.0361C155.355 16.0361 154.469 16.4281 153.786 17.2123C153.129 17.9964 152.8 18.9576 152.8 20.0958C152.8 21.2846 153.129 22.2838 153.786 23.0932C154.469 23.9026 155.355 24.3073 156.442 24.3073Z" fill="black"/>
<path d="M170.911 25.8629C170.102 25.8629 169.356 25.7112 168.673 25.4076C168.015 25.0788 167.459 24.6361 167.003 24.0797V29.9227C167.003 30.1756 166.928 30.378 166.776 30.5297C166.624 30.7068 166.422 30.7953 166.169 30.7953C165.916 30.7953 165.701 30.7068 165.524 30.5297C165.372 30.378 165.296 30.1756 165.296 29.9227V15.5049C165.296 15.2267 165.385 15.0243 165.562 14.8978C165.739 14.7461 165.941 14.6702 166.169 14.6702C166.371 14.6702 166.561 14.7461 166.738 14.8978C166.915 15.0243 167.003 15.2267 167.003 15.5049V16.1878C167.99 15.0496 169.293 14.4805 170.911 14.4805C172.48 14.4805 173.77 15.0117 174.781 16.074C175.793 17.1111 176.299 18.4517 176.299 20.0958C176.299 21.7905 175.793 23.1817 174.781 24.2694C173.77 25.3317 172.48 25.8629 170.911 25.8629ZM170.911 24.3073C171.999 24.3073 172.872 23.9026 173.529 23.0932C174.212 22.2838 174.554 21.2846 174.554 20.0958C174.554 18.9576 174.212 17.9964 173.529 17.2123C172.872 16.4281 171.999 16.0361 170.911 16.0361C169.748 16.0361 168.799 16.3775 168.066 17.0605C167.358 17.7434 167.003 18.7552 167.003 20.0958C167.003 21.487 167.358 22.5367 168.066 23.245C168.799 23.9532 169.748 24.3073 170.911 24.3073Z" fill="black"/>
<path d="M184.769 25.8629C183.96 25.8629 183.213 25.7112 182.53 25.4076C181.873 25.0788 181.316 24.6361 180.861 24.0797V29.9227C180.861 30.1756 180.785 30.378 180.633 30.5297C180.482 30.7068 180.279 30.7953 180.026 30.7953C179.773 30.7953 179.558 30.7068 179.381 30.5297C179.23 30.378 179.154 30.1756 179.154 29.9227V15.5049C179.154 15.2267 179.242 15.0243 179.419 14.8978C179.596 14.7461 179.799 14.6702 180.026 14.6702C180.229 14.6702 180.418 14.7461 180.595 14.8978C180.772 15.0243 180.861 15.2267 180.861 15.5049V16.1878C181.847 15.0496 183.15 14.4805 184.769 14.4805C186.337 14.4805 187.627 15.0117 188.639 16.074C189.651 17.1111 190.157 18.4517 190.157 20.0958C190.157 21.7905 189.651 23.1817 188.639 24.2694C187.627 25.3317 186.337 25.8629 184.769 25.8629ZM184.769 24.3073C185.857 24.3073 186.729 23.9026 187.387 23.0932C188.07 22.2838 188.411 21.2846 188.411 20.0958C188.411 18.9576 188.07 17.9964 187.387 17.2123C186.729 16.4281 185.857 16.0361 184.769 16.0361C183.605 16.0361 182.657 16.3775 181.923 17.0605C181.215 17.7434 180.861 18.7552 180.861 20.0958C180.861 21.487 181.215 22.5367 181.923 23.245C182.657 23.9532 183.605 24.3073 184.769 24.3073Z" fill="black"/>
<path d="M196.691 25.8629C194.971 25.8629 193.58 25.3697 192.518 24.3832C192.341 24.2061 192.252 24.0038 192.252 23.7761C192.252 23.5232 192.354 23.3208 192.556 23.1691C192.758 23.0173 192.923 22.9414 193.049 22.9414C193.251 22.9414 193.504 23.0679 193.808 23.3208C194.187 23.6497 194.617 23.9026 195.098 24.0797C195.604 24.2567 196.173 24.3453 196.805 24.3453C197.691 24.3453 198.348 24.1808 198.778 23.852C199.234 23.5232 199.461 23.0805 199.461 22.5241C199.461 21.9423 199.221 21.5249 198.74 21.272C198.26 20.9938 197.577 20.8041 196.691 20.7029C196.211 20.6523 195.629 20.5638 194.946 20.4373C194.289 20.3108 193.707 20.0579 193.201 19.6785C192.695 19.2737 192.442 18.6667 192.442 17.8573C192.442 16.8202 192.821 15.9981 193.58 15.3911C194.339 14.784 195.401 14.4805 196.767 14.4805C197.551 14.4805 198.285 14.5816 198.968 14.784C199.651 14.9611 200.144 15.1887 200.448 15.4669C200.65 15.6187 200.751 15.8211 200.751 16.074C200.751 16.2511 200.675 16.4408 200.524 16.6431C200.372 16.8202 200.195 16.9087 199.992 16.9087C199.891 16.9087 199.79 16.8834 199.689 16.8328C199.588 16.7823 199.487 16.7317 199.385 16.6811C198.93 16.4281 198.513 16.2511 198.133 16.1499C197.779 16.0487 197.349 15.9981 196.843 15.9981C196.034 15.9981 195.376 16.1499 194.87 16.4534C194.39 16.7317 194.149 17.1617 194.149 17.7434C194.149 18.1481 194.314 18.4517 194.643 18.654C194.997 18.8311 195.68 18.9829 196.691 19.1093C197.046 19.1599 197.476 19.2358 197.982 19.337C198.487 19.4382 198.981 19.6026 199.461 19.8302C199.942 20.0326 200.347 20.3488 200.675 20.7788C201.004 21.1835 201.169 21.7273 201.169 22.4102C201.169 23.4473 200.777 24.282 199.992 24.9144C199.208 25.5467 198.108 25.8629 196.691 25.8629Z" fill="black"/>
<path d="M69.382 25.8634C67.662 25.8634 66.2076 25.3575 65.0187 24.3458C63.8552 23.3087 63.2734 21.8922 63.2734 20.0963C63.2734 18.2245 63.8426 16.7575 64.9808 15.6951C66.1443 14.6327 67.5988 14.1016 69.3441 14.1016C70.5835 14.1016 71.6079 14.3292 72.4173 14.7845C73.2268 15.2398 73.8338 15.8216 74.2385 16.5298C74.6432 17.2381 74.8456 17.9842 74.8456 18.7684C74.8456 20.0837 74.2638 20.7413 73.1003 20.7413H66.802C66.5996 20.7413 66.4985 20.8678 66.4985 21.1207C66.4985 21.7025 66.8146 22.1705 67.447 22.5246C68.1047 22.8534 68.8382 23.0178 69.6476 23.0178C70.1535 23.0178 70.6594 22.9546 71.1653 22.8281C71.4226 22.7509 71.7284 22.6321 72.1104 22.4382C72.8637 22.0558 73.7698 22.172 74.1825 22.9091C74.4859 23.4508 74.4585 24.2367 73.9535 24.5978C73.287 25.0745 72.5515 25.3606 71.9241 25.522C71.0641 25.7496 70.2167 25.8634 69.382 25.8634ZM71.355 18.5407C71.4056 18.5407 71.4688 18.5281 71.5447 18.5028C71.6459 18.4775 71.6965 18.389 71.6965 18.2372C71.6965 17.8578 71.4562 17.5163 70.9756 17.2128C70.5203 16.8839 69.9258 16.7195 69.1923 16.7195C68.4082 16.7195 67.7632 16.8966 67.2573 17.2507C66.7767 17.5795 66.5364 17.921 66.5364 18.2751C66.5364 18.4522 66.6376 18.5407 66.8399 18.5407H71.355Z" fill="black"/>
<path d="M104.655 25.8634C102.935 25.8634 101.481 25.3575 100.292 24.3458C99.1286 23.3087 98.5469 21.8922 98.5469 20.0963C98.5469 18.2245 99.116 16.7575 100.254 15.6951C101.418 14.6327 102.872 14.1016 104.618 14.1016C105.857 14.1016 106.881 14.3292 107.691 14.7845C108.5 15.2398 109.107 15.8216 109.512 16.5298C109.917 17.2381 110.119 17.9842 110.119 18.7684C110.119 20.0837 109.537 20.7413 108.374 20.7413H102.075C101.873 20.7413 101.772 20.8678 101.772 21.1207C101.772 21.7025 102.088 22.1705 102.72 22.5246C103.378 22.8534 104.112 23.0178 104.921 23.0178C105.427 23.0178 105.933 22.9546 106.439 22.8281C106.696 22.7509 107.002 22.6321 107.384 22.4382C108.137 22.0558 109.043 22.172 109.456 22.9091C109.759 23.4508 109.732 24.2367 109.227 24.5978C108.56 25.0745 107.825 25.3606 107.198 25.522C106.338 25.7496 105.49 25.8634 104.655 25.8634ZM106.628 18.5407C106.679 18.5407 106.742 18.5281 106.818 18.5028C106.919 18.4775 106.97 18.389 106.97 18.2372C106.97 17.8578 106.73 17.5163 106.249 17.2128C105.794 16.8839 105.199 16.7195 104.466 16.7195C103.682 16.7195 103.037 16.8966 102.531 17.2507C102.05 17.5795 101.81 17.921 101.81 18.2751C101.81 18.4522 101.911 18.5407 102.113 18.5407H106.628Z" fill="black"/>
</svg>
