<svg width="426" height="300" fill="none" xmlns="http://www.w3.org/2000/svg"><g clip-path="url(#a)"><path d="M116.668 248.305h96v-67.771l-96 19.2v48.571Z" fill="#5E5A56"/><path d="M308.668 248.305h-96v-67.771l96 19.2v48.571Z" fill="#686764"/><path opacity=".3" d="m308.665 199.733 36.267-105.458A218.541 218.541 0 0 0 257.446 76h-89.562a218.538 218.538 0 0 0-87.486 18.275l36.267 105.458 96 19.2 96-19.2Z" fill="url(#b)"/><path d="M175.851 135.496s-1.613 47.175-1.613 53.784c0 6.149 3.075 8.882 7.638 8.882 1.972 0 3.869-.76 5.291-2.121l49.136-46.77c-5.739 0-9.655-.867-14.539-4.209-7.27-4.975-12.626-12.627-21.809-14.923-9.182-2.296-15.304-.382-24.104 5.357Z" fill="#FFC01F"/><path d="M254.343 133.255c4.783-8.882.683-19.128-3.416-22.547 0 0 6.832-3.367 6.832-12.257s-6.149-13.335-6.149-13.335 6.149-3.502 6.149-8.932c0-5.129-2.733-7.278-4.782-9.916-1.926-2.479-.836-9.055 1.57-10.69.27-.184.479-.468.479-.795a.783.783 0 0 0-.782-.783h-1.267c-9.566 0-18.106 1.022-23.572 4.441-5.466 3.419-7.515 9.236-7.174 14.707-4.853-.69-11.615-.9-15.941 2.92-4.326 3.821-5.581 7.994-4.556 14.826-5.466-1.024-14.229-.842-20.282 5.28-5.302 5.363-5.981 11.774-4.451 17.513-5.356 0-13.175 3.443-13.774 8.8-.599 5.356 3.441 8.035 7.27 8.035 2.273 0 5.357-1.913 9.948-4.592 4.591-2.678 13.227-3.764 22.191-1.147 8.964 2.616 11.26 6.887 21.809 14.921 10.549 8.035 25.115 2.433 29.898-6.449Z" fill="#FF7CAB"/><path d="m116.668 199.734 96 19.2v104.8h-96v-124Z" fill="url(#c)"/><path d="m308.668 199.734-96 19.201v104.8h96V199.734Z" fill="url(#d)"/><path d="m308.668 199.734-96 19.201v104.8h96V199.734Z" fill="#000" fill-opacity=".1"/><path d="m85.44 233.191 31.226-33.457 96 19.2-34.164 36.46a4 4 0 0 1-3.806 1.165l-88.237-20.053c-1.504-.342-2.071-2.187-1.018-3.315Z" fill="url(#e)"/><path d="m339.891 233.191-31.225-33.457-96 19.2 34.164 36.46a4 4 0 0 0 3.806 1.165l88.237-20.053c1.504-.342 2.071-2.187 1.018-3.315Z" fill="url(#f)"/><path d="m339.891 233.191-31.225-33.457-96 19.2 34.164 36.46a4 4 0 0 0 3.806 1.165l88.237-20.053c1.504-.342 2.071-2.187 1.018-3.315Z" fill="#000" fill-opacity=".2"/><path d="M158.887 205.001S142.205 160.267 83.253 124" stroke="url(#g)" stroke-width="3" stroke-linecap="round"/><circle r="2" transform="matrix(-1 0 0 1 109.387 117)" fill="#FFCF54"/><circle r="3.5" transform="matrix(-1 0 0 1 60.887 144.5)" fill="#FFB2CE"/><circle r="4.5" transform="matrix(-1 0 0 1 91.887 81.5)" fill="#FFB2CE"/><path d="M67.649 101.306c-.27-1.318-1.978-1.763-2.89-.753l-3.768 4.173a1.692 1.692 0 0 1-1.45.54l-5.673-.65c-1.374-.158-2.337 1.283-1.63 2.438l2.92 4.771c.28.459.31 1.022.08 1.507l-2.39 5.042c-.578 1.22.535 2.556 1.883 2.259l5.573-1.223a1.701 1.701 0 0 1 1.5.39L66 123.567c1.016.912 2.666.296 2.793-1.041l.525-5.528a1.62 1.62 0 0 1 .846-1.266l4.983-2.714a1.601 1.601 0 0 0-.156-2.903l-5.249-2.193a1.63 1.63 0 0 1-.977-1.172l-1.116-5.444Z" fill="#FFCF54"/><circle r="3" transform="matrix(-1 0 0 1 139.387 94)" fill="#FFCF54"/><path d="M283.889 204.001c19.2-56.533 68.166-80.001 68.166-80.001" stroke="url(#h)" stroke-width="3" stroke-linecap="round"/><circle r="3" transform="matrix(-1 0 0 1 374.387 152)" fill="#FFD979"/><circle r="1.5" transform="matrix(-1 0 0 1 347.887 190.5)" fill="#FF8AB4"/><circle r="2.5" transform="matrix(-1 0 0 1 345.887 84.5)" fill="#FF8AB4"/><circle r="2.5" transform="matrix(-1 0 0 1 93.5 157.5)" fill="#FF8AB4"/><path d="M365.159 103.498c.31-1.512 2.268-2.022 3.313-.863l3.482 3.858c.415.46 1.037.692 1.662.62l5.243-.602c1.574-.18 2.678 1.473 1.868 2.798l-2.698 4.412a1.817 1.817 0 0 0-.093 1.728l2.209 4.663c.663 1.4-.612 2.931-2.159 2.592l-5.149-1.132a1.956 1.956 0 0 0-1.72.448l-3.878 3.484c-1.164 1.046-3.056.339-3.202-1.195l-.484-5.112a1.86 1.86 0 0 0-.97-1.452l-4.605-2.509a1.838 1.838 0 0 1 .179-3.331l4.85-2.028a1.873 1.873 0 0 0 1.12-1.345l1.032-5.034Z" fill="#FFB3CE"/><circle r="3" transform="matrix(-1 0 0 1 280.387 114)" fill="#FF8AB4"/></g><defs><linearGradient id="c" x1="164.668" y1="199.734" x2="164.668" y2="323.734" gradientUnits="userSpaceOnUse"><stop offset=".076" stop-color="#6D6C69"/><stop offset=".822" stop-color="#83807C"/></linearGradient><linearGradient id="d" x1="260.668" y1="199.734" x2="260.668" y2="323.735" gradientUnits="userSpaceOnUse"><stop offset=".076" stop-color="#6D6C69"/><stop offset=".822" stop-color="#83807C"/></linearGradient><linearGradient id="e" x1="147.866" y1="199.734" x2="131.499" y2="248.002" gradientUnits="userSpaceOnUse"><stop stop-color="#A9A8A5"/><stop offset="1" stop-color="#8B8986"/></linearGradient><linearGradient id="f" x1="277.466" y1="199.734" x2="293.833" y2="248.002" gradientUnits="userSpaceOnUse"><stop stop-color="#A9A8A5"/><stop offset="1" stop-color="#8B8986"/></linearGradient><linearGradient id="g" x1="121.07" y1="124" x2="121.07" y2="205.001" gradientUnits="userSpaceOnUse"><stop stop-color="#FFDA79"/><stop offset="1" stop-color="#FFDA79" stop-opacity="0"/></linearGradient><linearGradient id="h" x1="317.972" y1="124" x2="317.972" y2="204.001" gradientUnits="userSpaceOnUse"><stop stop-color="#FFB3CE"/><stop offset="1" stop-color="#FFB3CE" stop-opacity="0"/></linearGradient><radialGradient id="b" cx="0" cy="0" r="1" gradientUnits="userSpaceOnUse" gradientTransform="matrix(0 -139.355 130.54 0 211.921 215.355)"><stop stop-color="#fff" stop-opacity=".6"/><stop offset="1" stop-color="#fff" stop-opacity="0"/></radialGradient><clipPath id="a"><path fill="#fff" d="M0 0h426v300H0z"/></clipPath></defs></svg>